<!-- Generator: Adobe Illustrator 18.0.0, SVG Export Plug-In  -->
<svg version="1.1"
	 xmlns="http://www.w3.org/2000/svg" xmlns:xlink="http://www.w3.org/1999/xlink" xmlns:a="http://ns.adobe.com/AdobeSVGViewerExtensions/3.0/"
	 x="0px" y="0px" width="52.8px" height="25.2px" viewBox="0 0 52.8 25.2" enable-background="new 0 0 52.8 25.2"
	 xml:space="preserve">
<defs>
</defs>
<g>
	<g>
		<path fill="#E2001A" d="M22.4,0h3.2l6.8,16h-3.7l-1.5-3.6h-6.7L19.2,16h-3.6L22.4,0z M26.1,9.4L24,4.2l-2.1,5.2H26.1z"/>
		<polygon fill="#FFFFFF" points="34.6,3.5 32.5,3.5 32.5,0 38.1,0 38.1,16 34.6,16 		"/>
		<path fill="#5FC5ED" d="M40.8,13.9l2.1-2.5c1.2,1.1,2.4,1.7,3.8,1.7c1.6,0,2.7-0.8,2.7-2.2v0c0-1.4-1.2-2.2-2.8-2.2
			c-1,0-1.9,0.3-2.7,0.6l-2-1.3l0.5-7.8h9.8v3.1h-6.8l-0.2,2.8c0.6-0.2,1.2-0.3,2.1-0.3c3.1,0,5.6,1.5,5.6,5.1v0
			c0,3.4-2.4,5.5-6.1,5.5C44.2,16.3,42.3,15.4,40.8,13.9"/>
		<polygon fill="#FFD500" points="16,6.3 9.7,6.3 9.7,0 6.3,0 6.3,6.3 0,6.3 0,9.7 6.3,9.7 6.3,16 9.7,16 9.7,9.7 16,9.7 		"/>
		<polygon fill="#5FC5ED" points="17,22.2 17.3,22.2 18.4,23.8 19.5,22.2 19.8,22.2 19.8,25.2 19.5,25.2 19.5,22.7 18.4,24.3 
			18.4,24.3 17.3,22.7 17.3,25.2 17,25.2 		"/>
		<path fill="#5FC5ED" d="M23.4,22.1h0.3l1.4,3h-0.4l-0.4-0.8h-1.6l-0.4,0.8H22L23.4,22.1z M24.2,24.1l-0.7-1.5l-0.7,1.5H24.2z"/>
		<path fill="#5FC5ED" d="M26.9,24.7l0.2-0.2c0.3,0.3,0.6,0.4,1,0.4c0.4,0,0.7-0.2,0.7-0.5v0c0-0.3-0.2-0.4-0.8-0.6
			c-0.7-0.2-1-0.4-1-0.9v0c0-0.5,0.4-0.8,1-0.8c0.4,0,0.8,0.1,1.1,0.4l-0.2,0.3c-0.3-0.2-0.6-0.3-0.9-0.3c-0.4,0-0.6,0.2-0.6,0.5v0
			c0,0.3,0.2,0.4,0.8,0.6c0.7,0.1,1,0.4,1,0.8v0c0,0.5-0.4,0.8-1,0.8C27.7,25.2,27.3,25.1,26.9,24.7"/>
		<path fill="#5FC5ED" d="M31.2,24.7l0.2-0.2c0.3,0.3,0.6,0.4,1,0.4c0.4,0,0.7-0.2,0.7-0.5v0c0-0.3-0.2-0.4-0.8-0.6
			c-0.7-0.2-1-0.4-1-0.9v0c0-0.5,0.4-0.8,1-0.8c0.4,0,0.8,0.1,1.1,0.4l-0.2,0.3c-0.3-0.2-0.6-0.3-0.9-0.3c-0.4,0-0.6,0.2-0.6,0.5v0
			c0,0.3,0.2,0.4,0.8,0.6c0.7,0.1,1,0.4,1,0.8v0c0,0.5-0.4,0.8-1,0.8C31.9,25.2,31.5,25.1,31.2,24.7"/>
		<path fill="#5FC5ED" d="M36.7,22.1H37l1.4,3H38l-0.4-0.8H36l-0.4,0.8h-0.3L36.7,22.1z M37.5,24.1l-0.7-1.5l-0.7,1.5H37.5z"/>
	</g>
</g>
</svg>
